<?xml version="1.0" encoding="UTF-8" standalone="no"?>
<!DOCTYPE svg PUBLIC "-//W3C//DTD SVG 1.1//EN"
 "http://www.w3.org/Graphics/SVG/1.1/DTD/svg11.dtd">
<!-- Generated by graphviz version 14.1.1 (20251213.1925)
 -->
<!-- Title: Integrated_CMIP Pages: 1 -->
<svg width="4153pt" height="467pt"
 viewBox="0.00 0.00 4153.00 467.00" xmlns="http://www.w3.org/2000/svg" xmlns:xlink="http://www.w3.org/1999/xlink">
<g id="graph0" class="graph" transform="scale(1 1) rotate(0) translate(4 463)">
<title>Integrated_CMIP</title>
<polygon fill="white" stroke="none" points="-4,4 -4,-463 4149,-463 4149,4 -4,4"/>
<!-- 2274003287696 -->
<g id="node1" class="node">
<title>2274003287696</title>
<polygon fill="white" stroke="black" points="54,-206 0,-206 0,-170 54,-170 54,-206"/>
<text xml:space="preserve" text-anchor="middle" x="27" y="-183.72" font-family="Times New Roman,serif" font-size="12.00">T2</text>
</g>
<!-- 2274003286288 -->
<g id="node41" class="node">
<title>2274003286288</title>
<ellipse fill="white" stroke="black" cx="117" cy="-188" rx="27" ry="27"/>
</g>
<!-- 2274003287696&#45;&gt;2274003286288 -->
<g id="edge18" class="edge">
<title>2274003287696&#45;&gt;2274003286288</title>
<path fill="none" stroke="black" d="M54.4,-188C61.89,-188 70.18,-188 78.2,-188"/>
<polygon fill="black" stroke="black" points="78.1,-191.5 88.1,-188 78.1,-184.5 78.1,-191.5"/>
</g>
<!-- 2274003278864 -->
<g id="node2" class="node">
<title>2274003278864</title>
<polygon fill="white" stroke="black" points="414,-415 360,-415 360,-379 414,-379 414,-415"/>
<text xml:space="preserve" text-anchor="middle" x="387" y="-392.73" font-family="Times New Roman,serif" font-size="12.00">T17</text>
</g>
<!-- 2274003279824 -->
<g id="node44" class="node">
<title>2274003279824</title>
<ellipse fill="white" stroke="black" cx="657" cy="-397" rx="27" ry="27"/>
</g>
<!-- 2274003278864&#45;&gt;2274003279824 -->
<g id="edge13" class="edge">
<title>2274003278864&#45;&gt;2274003279824</title>
<path fill="none" stroke="black" d="M414.18,-397C461.92,-397 563.23,-397 618.36,-397"/>
<polygon fill="black" stroke="black" points="618.2,-400.5 628.2,-397 618.2,-393.5 618.2,-400.5"/>
</g>
<!-- 2274003274000 -->
<g id="node3" class="node">
<title>2274003274000</title>
<polygon fill="white" stroke="black" points="3147,-368 3093,-368 3093,-332 3147,-332 3147,-368"/>
<text xml:space="preserve" text-anchor="middle" x="3120" y="-345.73" font-family="Times New Roman,serif" font-size="12.00">T18</text>
</g>
<!-- 2274003282512 -->
<g id="node43" class="node">
<title>2274003282512</title>
<ellipse fill="white" stroke="black" cx="3210" cy="-350" rx="27" ry="27"/>
</g>
<!-- 2274003274000&#45;&gt;2274003282512 -->
<g id="edge12" class="edge">
<title>2274003274000&#45;&gt;2274003282512</title>
<path fill="none" stroke="black" d="M3147.4,-350C3154.89,-350 3163.18,-350 3171.2,-350"/>
<polygon fill="black" stroke="black" points="3171.1,-353.5 3181.1,-350 3171.1,-346.5 3171.1,-353.5"/>
</g>
<!-- 2274003279632 -->
<g id="node4" class="node">
<title>2274003279632</title>
<polygon fill="white" stroke="black" points="1322,-305 1268,-305 1268,-269 1322,-269 1322,-305"/>
<text xml:space="preserve" text-anchor="middle" x="1295" y="-282.73" font-family="Times New Roman,serif" font-size="12.00">T29</text>
</g>
<!-- 2274003275728 -->
<g id="node45" class="node">
<title>2274003275728</title>
<ellipse fill="white" stroke="black" cx="1385" cy="-281" rx="27" ry="27"/>
</g>
<!-- 2274003279632&#45;&gt;2274003275728 -->
<g id="edge11" class="edge">
<title>2274003279632&#45;&gt;2274003275728</title>
<path fill="none" stroke="black" d="M1322.4,-285.2C1329.89,-284.69 1338.18,-284.12 1346.2,-283.58"/>
<polygon fill="black" stroke="black" points="1346.37,-287.07 1356.11,-282.9 1345.89,-280.09 1346.37,-287.07"/>
</g>
<!-- 2273939718416 -->
<g id="node5" class="node">
<title>2273939718416</title>
<polygon fill="white" stroke="black" points="414,-278 360,-278 360,-242 414,-242 414,-278"/>
<text xml:space="preserve" text-anchor="middle" x="387" y="-255.72" font-family="Times New Roman,serif" font-size="12.00">T5</text>
</g>
<!-- 2273939718480 -->
<g id="node42" class="node">
<title>2273939718480</title>
<ellipse fill="white" stroke="black" cx="477" cy="-260" rx="27" ry="27"/>
</g>
<!-- 2273939718416&#45;&gt;2273939718480 -->
<g id="edge19" class="edge">
<title>2273939718416&#45;&gt;2273939718480</title>
<path fill="none" stroke="black" d="M414.4,-260C421.89,-260 430.18,-260 438.2,-260"/>
<polygon fill="black" stroke="black" points="438.1,-263.5 448.1,-260 438.1,-256.5 438.1,-263.5"/>
</g>
<!-- 2274003285584 -->
<g id="node6" class="node">
<title>2274003285584</title>
<polygon fill="white" stroke="black" points="3687,-77 3633,-77 3633,-41 3687,-41 3687,-77"/>
<text xml:space="preserve" text-anchor="middle" x="3660" y="-54.73" font-family="Times New Roman,serif" font-size="12.00">T0</text>
</g>
<!-- 2274003284752 -->
<g id="node38" class="node">
<title>2274003284752</title>
<ellipse fill="white" stroke="black" cx="3754" cy="-59" rx="27" ry="27"/>
</g>
<!-- 2274003285584&#45;&gt;2274003284752 -->
<g id="edge14" class="edge">
<title>2274003285584&#45;&gt;2274003284752</title>
<path fill="none" stroke="black" d="M3687.12,-59C3695.96,-59 3706.01,-59 3715.55,-59"/>
<polygon fill="black" stroke="black" points="3715.3,-62.5 3725.3,-59 3715.3,-55.5 3715.3,-62.5"/>
</g>
<!-- 2274003287888 -->
<g id="node7" class="node">
<title>2274003287888</title>
<polygon fill="white" stroke="black" points="3875,-77 3821,-77 3821,-41 3875,-41 3875,-77"/>
<text xml:space="preserve" text-anchor="middle" x="3848" y="-54.73" font-family="Times New Roman,serif" font-size="12.00">T1</text>
</g>
<!-- 2274003287952 -->
<g id="node39" class="node">
<title>2274003287952</title>
<ellipse fill="white" stroke="black" cx="3938" cy="-59" rx="27" ry="27"/>
</g>
<!-- 2274003287888&#45;&gt;2274003287952 -->
<g id="edge16" class="edge">
<title>2274003287888&#45;&gt;2274003287952</title>
<path fill="none" stroke="black" d="M3875.4,-59C3882.89,-59 3891.18,-59 3899.2,-59"/>
<polygon fill="black" stroke="black" points="3899.1,-62.5 3909.1,-59 3899.1,-55.5 3899.1,-62.5"/>
</g>
<!-- 2274003278288 -->
<g id="node8" class="node">
<title>2274003278288</title>
<polygon fill="white" stroke="black" points="1134,-377 1080,-377 1080,-341 1134,-341 1134,-377"/>
<text xml:space="preserve" text-anchor="middle" x="1107" y="-354.73" font-family="Times New Roman,serif" font-size="12.00">T23</text>
</g>
<!-- 2274003276048 -->
<g id="node40" class="node">
<title>2274003276048</title>
<ellipse fill="white" stroke="black" cx="1201" cy="-359" rx="27" ry="27"/>
</g>
<!-- 2274003278288&#45;&gt;2274003276048 -->
<g id="edge17" class="edge">
<title>2274003278288&#45;&gt;2274003276048</title>
<path fill="none" stroke="black" d="M1134.12,-359C1142.96,-359 1153.01,-359 1162.55,-359"/>
<polygon fill="black" stroke="black" points="1162.3,-362.5 1172.3,-359 1162.3,-355.5 1162.3,-362.5"/>
</g>
<!-- 2273939723408 -->
<g id="node9" class="node">
<title>2273939723408</title>
<polygon fill="white" stroke="black" points="2231,-293 2177,-293 2177,-257 2231,-257 2231,-293"/>
<text xml:space="preserve" text-anchor="middle" x="2204" y="-270.73" font-family="Times New Roman,serif" font-size="12.00">T13</text>
</g>
<!-- 2273939726416 -->
<g id="node37" class="node">
<title>2273939726416</title>
<ellipse fill="white" stroke="black" cx="2298" cy="-275" rx="27" ry="27"/>
</g>
<!-- 2273939723408&#45;&gt;2273939726416 -->
<g id="edge15" class="edge">
<title>2273939723408&#45;&gt;2273939726416</title>
<path fill="none" stroke="black" d="M2231.12,-275C2239.96,-275 2250.01,-275 2259.55,-275"/>
<polygon fill="black" stroke="black" points="2259.3,-278.5 2269.3,-275 2259.3,-271.5 2259.3,-278.5"/>
</g>
<!-- 2274003286928 -->
<g id="node10" class="node">
<title>2274003286928</title>
<polygon fill="white" stroke="black" points="234,-206 180,-206 180,-170 234,-170 234,-206"/>
<text xml:space="preserve" text-anchor="middle" x="207" y="-183.72" font-family="Times New Roman,serif" font-size="12.00">T3</text>
</g>
<!-- 2273939729296 -->
<g id="node33" class="node">
<title>2273939729296</title>
<ellipse fill="white" stroke="black" cx="297" cy="-432" rx="27" ry="27"/>
<text xml:space="preserve" text-anchor="start" x="286.88" y="-418.82" font-family="Times New Roman,serif" font-size="34.00">●</text>
</g>
<!-- 2274003286928&#45;&gt;2273939729296 -->
<g id="edge30" class="edge">
<title>2274003286928&#45;&gt;2273939729296</title>
<path fill="none" stroke="black" d="M211.3,-206.29C218.46,-243.46 237.46,-329.91 270,-396 270.97,-397.97 272.05,-399.95 273.19,-401.91"/>
<polygon fill="black" stroke="black" points="270.16,-403.66 278.53,-410.16 276.04,-399.86 270.16,-403.66"/>
</g>
<!-- 2273939733584 -->
<g id="node36" class="node">
<title>2273939733584</title>
<ellipse fill="white" stroke="black" cx="3754" cy="-196" rx="27" ry="27"/>
<text xml:space="preserve" text-anchor="start" x="3743.88" y="-182.82" font-family="Times New Roman,serif" font-size="34.00">●</text>
</g>
<!-- 2274003286928&#45;&gt;2273939733584 -->
<g id="edge31" class="edge">
<title>2274003286928&#45;&gt;2273939733584</title>
<path fill="none" stroke="black" d="M234.03,-169.52C267.52,-147.6 328.27,-114 386,-114 386,-114 386,-114 3571,-114 3628.81,-114 3688.56,-148.82 3723.17,-173.08"/>
<polygon fill="black" stroke="black" points="3720.86,-175.72 3731.02,-178.72 3724.94,-170.04 3720.86,-175.72"/>
</g>
<!-- 2274003286160 -->
<g id="node47" class="node">
<title>2274003286160</title>
<ellipse fill="white" stroke="black" cx="567" cy="-169" rx="27" ry="27"/>
</g>
<!-- 2274003286928&#45;&gt;2274003286160 -->
<g id="edge37" class="edge">
<title>2274003286928&#45;&gt;2274003286160</title>
<path fill="none" stroke="black" d="M234.49,-184.04C245.46,-182.54 258.32,-180.97 270,-180 362.63,-172.32 472,-170 528.31,-169.3"/>
<polygon fill="black" stroke="black" points="528.35,-172.8 538.31,-169.19 528.27,-165.8 528.35,-172.8"/>
</g>
<!-- 2273939728720 -->
<g id="node53" class="node">
<title>2273939728720</title>
<ellipse fill="white" stroke="black" cx="297" cy="-216" rx="27" ry="27"/>
</g>
<!-- 2274003286928&#45;&gt;2273939728720 -->
<g id="edge38" class="edge">
<title>2274003286928&#45;&gt;2273939728720</title>
<path fill="none" stroke="black" d="M234.4,-196.4C242.43,-198.95 251.39,-201.81 259.94,-204.53"/>
<polygon fill="black" stroke="black" points="258.79,-207.83 269.38,-207.53 260.91,-201.16 258.79,-207.83"/>
</g>
<!-- 2274003278352 -->
<g id="node11" class="node">
<title>2274003278352</title>
<polygon fill="white" stroke="black" points="3417,-332 3363,-332 3363,-296 3417,-296 3417,-332"/>
<text xml:space="preserve" text-anchor="middle" x="3390" y="-309.73" font-family="Times New Roman,serif" font-size="12.00">T20</text>
</g>
<!-- 2274003283792 -->
<g id="node50" class="node">
<title>2274003283792</title>
<ellipse fill="white" stroke="black" cx="3570" cy="-321" rx="27" ry="27"/>
</g>
<!-- 2274003278352&#45;&gt;2274003283792 -->
<g id="edge36" class="edge">
<title>2274003278352&#45;&gt;2274003283792</title>
<path fill="none" stroke="black" d="M3417.26,-315.03C3447.37,-316.22 3496.96,-318.17 3531.21,-319.51"/>
<polygon fill="black" stroke="black" points="3530.99,-323.01 3541.12,-319.9 3531.26,-316.01 3530.99,-323.01"/>
</g>
<!-- 2274003280144 -->
<g id="node12" class="node">
<title>2274003280144</title>
<polygon fill="white" stroke="black" points="1503,-220 1448,-220 1448,-184 1503,-184 1503,-220"/>
<text xml:space="preserve" text-anchor="middle" x="1475.5" y="-197.72" font-family="Times New Roman,serif" font-size="12.00">T4_T30</text>
</g>
<!-- 2274003273616 -->
<g id="node46" class="node">
<title>2274003273616</title>
<ellipse fill="white" stroke="black" cx="1570" cy="-275" rx="27" ry="27"/>
</g>
<!-- 2274003280144&#45;&gt;2274003273616 -->
<g id="edge35" class="edge">
<title>2274003280144&#45;&gt;2274003273616</title>
<path fill="none" stroke="black" d="M1499.84,-220.42C1511.81,-229.87 1526.53,-241.48 1539.3,-251.56"/>
<polygon fill="black" stroke="black" points="1536.98,-254.19 1547,-257.64 1541.32,-248.7 1536.98,-254.19"/>
</g>
<!-- 2274003285776 -->
<g id="node54" class="node">
<title>2274003285776</title>
<ellipse fill="white" stroke="black" cx="1570" cy="-199" rx="27" ry="27"/>
<ellipse fill="none" stroke="black" cx="1570" cy="-199" rx="31" ry="31"/>
<text xml:space="preserve" text-anchor="start" x="1560.25" y="-186.97" font-family="Times New Roman,serif" font-size="32.00">■</text>
</g>
<!-- 2274003280144&#45;&gt;2274003285776 -->
<g id="edge40" class="edge">
<title>2274003280144&#45;&gt;2274003285776</title>
<path fill="none" stroke="black" d="M1503.25,-201.13C1510.8,-200.89 1519.19,-200.62 1527.38,-200.35"/>
<polygon fill="black" stroke="black" points="1527.33,-203.85 1537.22,-200.03 1527.11,-196.86 1527.33,-203.85"/>
</g>
<!-- 2273939720080 -->
<g id="node13" class="node">
<title>2273939720080</title>
<polygon fill="white" stroke="black" points="594,-278 540,-278 540,-242 594,-242 594,-278"/>
<text xml:space="preserve" text-anchor="middle" x="567" y="-255.72" font-family="Times New Roman,serif" font-size="12.00">T6</text>
</g>
<!-- 2273939720464 -->
<g id="node48" class="node">
<title>2273939720464</title>
<ellipse fill="white" stroke="black" cx="657" cy="-260" rx="27" ry="27"/>
</g>
<!-- 2273939720080&#45;&gt;2273939720464 -->
<g id="edge34" class="edge">
<title>2273939720080&#45;&gt;2273939720464</title>
<path fill="none" stroke="black" d="M594.4,-260C601.89,-260 610.18,-260 618.2,-260"/>
<polygon fill="black" stroke="black" points="618.1,-263.5 628.1,-260 618.1,-256.5 618.1,-263.5"/>
</g>
<!-- 2274003277008 -->
<g id="node14" class="node">
<title>2274003277008</title>
<polygon fill="white" stroke="black" points="3327,-387 3273,-387 3273,-351 3327,-351 3327,-387"/>
<text xml:space="preserve" text-anchor="middle" x="3300" y="-364.73" font-family="Times New Roman,serif" font-size="12.00">T19</text>
</g>
<!-- 2274003280720 -->
<g id="node51" class="node">
<title>2274003280720</title>
<ellipse fill="white" stroke="black" cx="3390" cy="-377" rx="27" ry="27"/>
</g>
<!-- 2274003277008&#45;&gt;2274003280720 -->
<g id="edge32" class="edge">
<title>2274003277008&#45;&gt;2274003280720</title>
<path fill="none" stroke="black" d="M3327.4,-371.4C3334.89,-372.08 3343.18,-372.83 3351.2,-373.56"/>
<polygon fill="black" stroke="black" points="3350.83,-377.04 3361.11,-374.46 3351.47,-370.07 3350.83,-377.04"/>
</g>
<!-- 2273939732560 -->
<g id="node15" class="node">
<title>2273939732560</title>
<polygon fill="white" stroke="black" points="4055,-72 4001,-72 4001,-36 4055,-36 4055,-72"/>
<text xml:space="preserve" text-anchor="middle" x="4028" y="-49.73" font-family="Times New Roman,serif" font-size="12.00">T24</text>
</g>
<!-- 2274003286224 -->
<g id="node49" class="node">
<title>2274003286224</title>
<ellipse fill="white" stroke="black" cx="4118" cy="-27" rx="27" ry="27"/>
</g>
<!-- 2273939732560&#45;&gt;2274003286224 -->
<g id="edge33" class="edge">
<title>2273939732560&#45;&gt;2274003286224</title>
<path fill="none" stroke="black" d="M4055.4,-45.9C4063.43,-43.44 4072.39,-40.69 4080.94,-38.06"/>
<polygon fill="black" stroke="black" points="4081.84,-41.45 4090.38,-35.17 4079.79,-34.76 4081.84,-41.45"/>
</g>
<!-- 2273939725008 -->
<g id="node16" class="node">
<title>2273939725008</title>
<polygon fill="white" stroke="black" points="2419,-293 2365,-293 2365,-257 2419,-257 2419,-293"/>
<text xml:space="preserve" text-anchor="middle" x="2392" y="-270.73" font-family="Times New Roman,serif" font-size="12.00">T14</text>
</g>
<!-- 2273939722384 -->
<g id="node52" class="node">
<title>2273939722384</title>
<ellipse fill="white" stroke="black" cx="2482" cy="-275" rx="27" ry="27"/>
</g>
<!-- 2273939725008&#45;&gt;2273939722384 -->
<g id="edge39" class="edge">
<title>2273939725008&#45;&gt;2273939722384</title>
<path fill="none" stroke="black" d="M2419.4,-275C2426.89,-275 2435.18,-275 2443.2,-275"/>
<polygon fill="black" stroke="black" points="2443.1,-278.5 2453.1,-275 2443.1,-271.5 2443.1,-278.5"/>
</g>
<!-- 2273939722832 -->
<g id="node17" class="node">
<title>2273939722832</title>
<polygon fill="white" stroke="black" points="774,-278 720,-278 720,-242 774,-242 774,-278"/>
<text xml:space="preserve" text-anchor="middle" x="747" y="-255.72" font-family="Times New Roman,serif" font-size="12.00">T7</text>
</g>
<!-- 2273939718544 -->
<g id="node57" class="node">
<title>2273939718544</title>
<ellipse fill="white" stroke="black" cx="837" cy="-260" rx="27" ry="27"/>
</g>
<!-- 2273939722832&#45;&gt;2273939718544 -->
<g id="edge54" class="edge">
<title>2273939722832&#45;&gt;2273939718544</title>
<path fill="none" stroke="black" d="M774.4,-260C781.89,-260 790.18,-260 798.2,-260"/>
<polygon fill="black" stroke="black" points="798.1,-263.5 808.1,-260 798.1,-256.5 798.1,-263.5"/>
</g>
<!-- 2274003276880 -->
<g id="node18" class="node">
<title>2274003276880</title>
<polygon fill="white" stroke="black" points="3507,-390 3453,-390 3453,-354 3507,-354 3507,-390"/>
<text xml:space="preserve" text-anchor="middle" x="3480" y="-367.73" font-family="Times New Roman,serif" font-size="12.00">T21</text>
</g>
<!-- 2274003276880&#45;&gt;2274003283792 -->
<g id="edge51" class="edge">
<title>2274003276880&#45;&gt;2274003283792</title>
<path fill="none" stroke="black" d="M3507.4,-356.7C3516.47,-351.44 3526.74,-345.49 3536.26,-339.98"/>
<polygon fill="black" stroke="black" points="3537.98,-343.02 3544.88,-334.98 3534.47,-336.96 3537.98,-343.02"/>
</g>
<!-- 2274003271888 -->
<g id="node19" class="node">
<title>2274003271888</title>
<polygon fill="white" stroke="black" points="3687,-339 3633,-339 3633,-303 3687,-303 3687,-339"/>
<text xml:space="preserve" text-anchor="middle" x="3660" y="-316.73" font-family="Times New Roman,serif" font-size="12.00">T22</text>
</g>
<!-- 2274003271888&#45;&gt;2273939729296 -->
<g id="edge49" class="edge">
<title>2274003271888&#45;&gt;2273939729296</title>
<path fill="none" stroke="black" d="M3646.44,-339.49C3620.26,-375.6 3556.01,-452 3481,-452 476,-452 476,-452 476,-452 426.89,-452 370.64,-444.39 334.74,-438.56"/>
<polygon fill="black" stroke="black" points="335.77,-435.18 325.33,-436.99 334.62,-442.09 335.77,-435.18"/>
</g>
<!-- 2274003271888&#45;&gt;2273939733584 -->
<g id="edge50" class="edge">
<title>2274003271888&#45;&gt;2273939733584</title>
<path fill="none" stroke="black" d="M3674.57,-302.56C3689.31,-282.53 3713.09,-250.23 3730.6,-226.44"/>
<polygon fill="black" stroke="black" points="3733.2,-228.8 3736.31,-218.68 3727.56,-224.66 3733.2,-228.8"/>
</g>
<!-- 2274003286032 -->
<g id="node58" class="node">
<title>2274003286032</title>
<ellipse fill="white" stroke="black" cx="3754" cy="-321" rx="27" ry="27"/>
<ellipse fill="none" stroke="black" cx="3754" cy="-321" rx="31" ry="31"/>
<text xml:space="preserve" text-anchor="start" x="3744.25" y="-308.98" font-family="Times New Roman,serif" font-size="32.00">■</text>
</g>
<!-- 2274003271888&#45;&gt;2274003286032 -->
<g id="edge55" class="edge">
<title>2274003271888&#45;&gt;2274003286032</title>
<path fill="none" stroke="black" d="M3687.12,-321C3694.63,-321 3703.01,-321 3711.22,-321"/>
<polygon fill="black" stroke="black" points="3711.08,-324.5 3721.08,-321 3711.08,-317.5 3711.08,-324.5"/>
</g>
<!-- 2274003279440 -->
<g id="node20" class="node">
<title>2274003279440</title>
<polygon fill="white" stroke="black" points="1691,-293 1637,-293 1637,-257 1691,-257 1691,-293"/>
<text xml:space="preserve" text-anchor="middle" x="1664" y="-270.73" font-family="Times New Roman,serif" font-size="12.00">T10</text>
</g>
<!-- 2274003276752 -->
<g id="node56" class="node">
<title>2274003276752</title>
<ellipse fill="white" stroke="black" cx="1754" cy="-275" rx="27" ry="27"/>
</g>
<!-- 2274003279440&#45;&gt;2274003276752 -->
<g id="edge53" class="edge">
<title>2274003279440&#45;&gt;2274003276752</title>
<path fill="none" stroke="black" d="M1691.4,-275C1698.89,-275 1707.18,-275 1715.2,-275"/>
<polygon fill="black" stroke="black" points="1715.1,-278.5 1725.1,-275 1715.1,-271.5 1715.1,-278.5"/>
</g>
<!-- 2273939723280 -->
<g id="node21" class="node">
<title>2273939723280</title>
<polygon fill="white" stroke="black" points="2599,-293 2545,-293 2545,-257 2599,-257 2599,-293"/>
<text xml:space="preserve" text-anchor="middle" x="2572" y="-270.73" font-family="Times New Roman,serif" font-size="12.00">T15</text>
</g>
<!-- 2273939722128 -->
<g id="node55" class="node">
<title>2273939722128</title>
<ellipse fill="white" stroke="black" cx="2662" cy="-275" rx="27" ry="27"/>
</g>
<!-- 2273939723280&#45;&gt;2273939722128 -->
<g id="edge52" class="edge">
<title>2273939723280&#45;&gt;2273939722128</title>
<path fill="none" stroke="black" d="M2599.4,-275C2606.89,-275 2615.18,-275 2623.2,-275"/>
<polygon fill="black" stroke="black" points="2623.1,-278.5 2633.1,-275 2623.1,-271.5 2623.1,-278.5"/>
</g>
<!-- 2273939719760 -->
<g id="node22" class="node">
<title>2273939719760</title>
<polygon fill="white" stroke="black" points="954,-278 900,-278 900,-242 954,-242 954,-278"/>
<text xml:space="preserve" text-anchor="middle" x="927" y="-255.72" font-family="Times New Roman,serif" font-size="12.00">T8</text>
</g>
<!-- 2273939729040 -->
<g id="node60" class="node">
<title>2273939729040</title>
<ellipse fill="white" stroke="black" cx="1017" cy="-359" rx="27" ry="27"/>
</g>
<!-- 2273939719760&#45;&gt;2273939729040 -->
<g id="edge59" class="edge">
<title>2273939719760&#45;&gt;2273939729040</title>
<path fill="none" stroke="black" d="M944.14,-278.16C957.24,-292.89 975.93,-313.93 990.97,-330.84"/>
<polygon fill="black" stroke="black" points="988.19,-332.98 997.45,-338.13 993.42,-328.33 988.19,-332.98"/>
</g>
<!-- 2273939718288 -->
<g id="node62" class="node">
<title>2273939718288</title>
<ellipse fill="white" stroke="black" cx="1017" cy="-215" rx="27" ry="27"/>
</g>
<!-- 2273939719760&#45;&gt;2273939718288 -->
<g id="edge61" class="edge">
<title>2273939719760&#45;&gt;2273939718288</title>
<path fill="none" stroke="black" d="M954.4,-246.5C963.23,-241.98 973.19,-236.89 982.49,-232.14"/>
<polygon fill="black" stroke="black" points="983.95,-235.32 991.26,-227.65 980.76,-229.09 983.95,-235.32"/>
</g>
<!-- 2274003278800 -->
<g id="node23" class="node">
<title>2274003278800</title>
<polygon fill="white" stroke="black" points="1871,-293 1817,-293 1817,-257 1871,-257 1871,-293"/>
<text xml:space="preserve" text-anchor="middle" x="1844" y="-270.73" font-family="Times New Roman,serif" font-size="12.00">T11</text>
</g>
<!-- 2274003277072 -->
<g id="node59" class="node">
<title>2274003277072</title>
<ellipse fill="white" stroke="black" cx="1934" cy="-275" rx="27" ry="27"/>
</g>
<!-- 2274003278800&#45;&gt;2274003277072 -->
<g id="edge62" class="edge">
<title>2274003278800&#45;&gt;2274003277072</title>
<path fill="none" stroke="black" d="M1871.4,-275C1878.89,-275 1887.18,-275 1895.2,-275"/>
<polygon fill="black" stroke="black" points="1895.1,-278.5 1905.1,-275 1895.1,-271.5 1895.1,-278.5"/>
</g>
<!-- 2273939725136 -->
<g id="node24" class="node">
<title>2273939725136</title>
<polygon fill="white" stroke="black" points="2779,-293 2725,-293 2725,-257 2779,-257 2779,-293"/>
<text xml:space="preserve" text-anchor="middle" x="2752" y="-270.73" font-family="Times New Roman,serif" font-size="12.00">T26</text>
</g>
<!-- 2273939723600 -->
<g id="node61" class="node">
<title>2273939723600</title>
<ellipse fill="white" stroke="black" cx="2842" cy="-275" rx="27" ry="27"/>
</g>
<!-- 2273939725136&#45;&gt;2273939723600 -->
<g id="edge60" class="edge">
<title>2273939725136&#45;&gt;2273939723600</title>
<path fill="none" stroke="black" d="M2779.4,-275C2786.89,-275 2795.18,-275 2803.2,-275"/>
<polygon fill="black" stroke="black" points="2803.1,-278.5 2813.1,-275 2803.1,-271.5 2803.1,-278.5"/>
</g>
<!-- 2273939719504 -->
<g id="node25" class="node">
<title>2273939719504</title>
<polygon fill="white" stroke="black" points="1134,-233 1080,-233 1080,-197 1134,-197 1134,-233"/>
<text xml:space="preserve" text-anchor="middle" x="1107" y="-210.72" font-family="Times New Roman,serif" font-size="12.00">T27</text>
</g>
<!-- 2273939731472 -->
<g id="node35" class="node">
<title>2273939731472</title>
<ellipse fill="white" stroke="black" cx="1201" cy="-287" rx="27" ry="27"/>
<text xml:space="preserve" text-anchor="start" x="1190.88" y="-273.82" font-family="Times New Roman,serif" font-size="34.00">●</text>
</g>
<!-- 2273939719504&#45;&gt;2273939731472 -->
<g id="edge67" class="edge">
<title>2273939719504&#45;&gt;2273939731472</title>
<path fill="none" stroke="black" d="M1131.22,-233.17C1143.04,-242.42 1157.55,-253.78 1170.19,-263.67"/>
<polygon fill="black" stroke="black" points="1167.77,-266.22 1177.8,-269.63 1172.08,-260.71 1167.77,-266.22"/>
</g>
<!-- 2273939725200 -->
<g id="node66" class="node">
<title>2273939725200</title>
<ellipse fill="white" stroke="black" cx="1201" cy="-211" rx="27" ry="27"/>
<ellipse fill="none" stroke="black" cx="1201" cy="-211" rx="31" ry="31"/>
<text xml:space="preserve" text-anchor="start" x="1191.25" y="-198.97" font-family="Times New Roman,serif" font-size="32.00">■</text>
</g>
<!-- 2273939719504&#45;&gt;2273939725200 -->
<g id="edge72" class="edge">
<title>2273939719504&#45;&gt;2273939725200</title>
<path fill="none" stroke="black" d="M1134.12,-213.86C1141.63,-213.54 1150.01,-213.17 1158.22,-212.82"/>
<polygon fill="black" stroke="black" points="1158.24,-216.32 1168.08,-212.39 1157.93,-209.33 1158.24,-216.32"/>
</g>
<!-- 2274003281104 -->
<g id="node26" class="node">
<title>2274003281104</title>
<polygon fill="white" stroke="black" points="2051,-293 1997,-293 1997,-257 2051,-257 2051,-293"/>
<text xml:space="preserve" text-anchor="middle" x="2024" y="-270.73" font-family="Times New Roman,serif" font-size="12.00">T12</text>
</g>
<!-- 2273939732368 -->
<g id="node63" class="node">
<title>2273939732368</title>
<ellipse fill="white" stroke="black" cx="2114" cy="-326" rx="27" ry="27"/>
</g>
<!-- 2274003281104&#45;&gt;2273939732368 -->
<g id="edge68" class="edge">
<title>2274003281104&#45;&gt;2273939732368</title>
<path fill="none" stroke="black" d="M2051.4,-290.3C2060.47,-295.56 2070.74,-301.51 2080.26,-307.02"/>
<polygon fill="black" stroke="black" points="2078.47,-310.04 2088.88,-312.02 2081.98,-303.98 2078.47,-310.04"/>
</g>
<!-- 2274003277392 -->
<g id="node64" class="node">
<title>2274003277392</title>
<ellipse fill="white" stroke="black" cx="2114" cy="-182" rx="27" ry="27"/>
</g>
<!-- 2274003281104&#45;&gt;2274003277392 -->
<g id="edge70" class="edge">
<title>2274003281104&#45;&gt;2274003277392</title>
<path fill="none" stroke="black" d="M2042.39,-256.63C2055.15,-243.14 2072.7,-224.59 2087.11,-209.36"/>
<polygon fill="black" stroke="black" points="2089.37,-212.06 2093.7,-202.4 2084.29,-207.25 2089.37,-212.06"/>
</g>
<!-- 2273939725520 -->
<g id="node27" class="node">
<title>2273939725520</title>
<polygon fill="white" stroke="black" points="2959,-293 2905,-293 2905,-257 2959,-257 2959,-293"/>
<text xml:space="preserve" text-anchor="middle" x="2932" y="-270.73" font-family="Times New Roman,serif" font-size="12.00">T16</text>
</g>
<!-- 2273939726864 -->
<g id="node65" class="node">
<title>2273939726864</title>
<ellipse fill="white" stroke="black" cx="3026" cy="-350" rx="27" ry="27"/>
</g>
<!-- 2273939725520&#45;&gt;2273939726864 -->
<g id="edge69" class="edge">
<title>2273939725520&#45;&gt;2273939726864</title>
<path fill="none" stroke="black" d="M2955.27,-293.16C2967.46,-303.09 2982.7,-315.52 2995.82,-326.21"/>
<polygon fill="black" stroke="black" points="2993.37,-328.73 3003.33,-332.34 2997.79,-323.31 2993.37,-328.73"/>
</g>
<!-- 2273939723024 -->
<g id="node67" class="node">
<title>2273939723024</title>
<ellipse fill="white" stroke="black" cx="3026" cy="-274" rx="27" ry="27"/>
<ellipse fill="none" stroke="black" cx="3026" cy="-274" rx="31" ry="31"/>
<text xml:space="preserve" text-anchor="start" x="3016.25" y="-261.98" font-family="Times New Roman,serif" font-size="32.00">■</text>
</g>
<!-- 2273939725520&#45;&gt;2273939723024 -->
<g id="edge71" class="edge">
<title>2273939725520&#45;&gt;2273939723024</title>
<path fill="none" stroke="black" d="M2959.12,-274.72C2966.63,-274.63 2975.01,-274.54 2983.22,-274.45"/>
<polygon fill="black" stroke="black" points="2983.11,-277.96 2993.08,-274.35 2983.04,-270.96 2983.11,-277.96"/>
</g>
<!-- 2274003281552 -->
<g id="node28" class="node">
<title>2274003281552</title>
<polygon fill="white" stroke="black" points="2231,-200 2177,-200 2177,-164 2231,-164 2231,-200"/>
<text xml:space="preserve" text-anchor="middle" x="2204" y="-177.72" font-family="Times New Roman,serif" font-size="12.00">T28</text>
</g>
<!-- 2274003277264 -->
<g id="node68" class="node">
<title>2274003277264</title>
<ellipse fill="white" stroke="black" cx="2298" cy="-182" rx="27" ry="27"/>
<ellipse fill="none" stroke="black" cx="2298" cy="-182" rx="31" ry="31"/>
<text xml:space="preserve" text-anchor="start" x="2288.25" y="-169.97" font-family="Times New Roman,serif" font-size="32.00">■</text>
</g>
<!-- 2274003281552&#45;&gt;2274003277264 -->
<g id="edge76" class="edge">
<title>2274003281552&#45;&gt;2274003277264</title>
<path fill="none" stroke="black" d="M2231.12,-182C2238.63,-182 2247.01,-182 2255.22,-182"/>
<polygon fill="black" stroke="black" points="2255.08,-185.5 2265.08,-182 2255.08,-178.5 2255.08,-185.5"/>
</g>
<!-- 2274003281424 -->
<g id="node29" class="node">
<title>2274003281424</title>
<ellipse fill="white" stroke="black" cx="297" cy="-360" rx="27" ry="27"/>
<text xml:space="preserve" text-anchor="start" x="286.88" y="-346.82" font-family="Times New Roman,serif" font-size="34.00">●</text>
</g>
<!-- 2274003281424&#45;&gt;2274003278864 -->
<g id="edge7" class="edge">
<title>2274003281424&#45;&gt;2274003278864</title>
<path fill="none" stroke="black" d="M322.05,-370.11C330.39,-373.62 339.94,-377.63 349.07,-381.47"/>
<polygon fill="black" stroke="black" points="347.54,-384.62 358.11,-385.27 350.25,-378.17 347.54,-384.62"/>
</g>
<!-- 2274003273744 -->
<g id="node30" class="node">
<title>2274003273744</title>
<ellipse fill="white" stroke="black" cx="1017" cy="-287" rx="27" ry="27"/>
<text xml:space="preserve" text-anchor="start" x="1006.88" y="-273.82" font-family="Times New Roman,serif" font-size="34.00">●</text>
</g>
<!-- 2274003273744&#45;&gt;2274003278288 -->
<g id="edge4" class="edge">
<title>2274003273744&#45;&gt;2274003278288</title>
<path fill="none" stroke="black" d="M1038.41,-303.7C1049.17,-312.5 1062.61,-323.5 1074.66,-333.36"/>
<polygon fill="black" stroke="black" points="1072.41,-336.04 1082.37,-339.66 1076.84,-330.62 1072.41,-336.04"/>
</g>
<!-- 2274003285392 -->
<g id="node31" class="node">
<title>2274003285392</title>
<ellipse fill="white" stroke="black" cx="3570" cy="-59" rx="27" ry="27"/>
<text xml:space="preserve" text-anchor="start" x="3559.88" y="-45.83" font-family="Times New Roman,serif" font-size="34.00">●</text>
</g>
<!-- 2274003285392&#45;&gt;2274003285584 -->
<g id="edge6" class="edge">
<title>2274003285392&#45;&gt;2274003285584</title>
<path fill="none" stroke="black" d="M3597.4,-59C3604.89,-59 3613.18,-59 3621.2,-59"/>
<polygon fill="black" stroke="black" points="3621.1,-62.5 3631.1,-59 3621.1,-55.5 3621.1,-62.5"/>
</g>
<!-- 2273939722960 -->
<g id="node32" class="node">
<title>2273939722960</title>
<ellipse fill="white" stroke="black" cx="2114" cy="-254" rx="27" ry="27"/>
<text xml:space="preserve" text-anchor="start" x="2103.88" y="-240.82" font-family="Times New Roman,serif" font-size="34.00">●</text>
</g>
<!-- 2273939722960&#45;&gt;2273939723408 -->
<g id="edge9" class="edge">
<title>2273939722960&#45;&gt;2273939723408</title>
<path fill="none" stroke="black" d="M2140.45,-260.07C2148.27,-261.94 2157.04,-264.03 2165.49,-266.05"/>
<polygon fill="black" stroke="black" points="2164.67,-269.45 2175.21,-268.37 2166.3,-262.64 2164.67,-269.45"/>
</g>
<!-- 2273939729296&#45;&gt;2274003287696 -->
<g id="edge1" class="edge">
<title>2273939729296&#45;&gt;2274003287696</title>
<path fill="none" stroke="black" d="M276.35,-414.11C229.48,-371.43 110.94,-263.51 56.34,-213.8"/>
<polygon fill="black" stroke="black" points="59.01,-211.5 49.26,-207.36 54.3,-216.68 59.01,-211.5"/>
</g>
<!-- 2273939729296&#45;&gt;2274003278864 -->
<g id="edge5" class="edge">
<title>2273939729296&#45;&gt;2274003278864</title>
<path fill="none" stroke="black" d="M322.51,-422.25C330.76,-418.97 340.14,-415.24 349.12,-411.67"/>
<polygon fill="black" stroke="black" points="350.37,-414.94 358.37,-407.99 347.78,-408.43 350.37,-414.94"/>
</g>
<!-- 2273939733328 -->
<g id="node34" class="node">
<title>2273939733328</title>
<ellipse fill="white" stroke="black" cx="297" cy="-288" rx="27" ry="27"/>
<text xml:space="preserve" text-anchor="start" x="286.88" y="-274.82" font-family="Times New Roman,serif" font-size="34.00">●</text>
</g>
<!-- 2273939733328&#45;&gt;2273939718416 -->
<g id="edge2" class="edge">
<title>2273939733328&#45;&gt;2273939718416</title>
<path fill="none" stroke="black" d="M322.98,-280.05C331.06,-277.48 340.19,-274.58 348.95,-271.79"/>
<polygon fill="black" stroke="black" points="349.82,-275.19 358.29,-268.82 347.69,-268.52 349.82,-275.19"/>
</g>
<!-- 2273939731472&#45;&gt;2274003279632 -->
<g id="edge8" class="edge">
<title>2273939731472&#45;&gt;2274003279632</title>
<path fill="none" stroke="black" d="M1228.12,-287C1236.96,-287 1247.01,-287 1256.55,-287"/>
<polygon fill="black" stroke="black" points="1256.3,-290.5 1266.3,-287 1256.3,-283.5 1256.3,-290.5"/>
</g>
<!-- 2273939733584&#45;&gt;2274003274000 -->
<g id="edge10" class="edge">
<title>2273939733584&#45;&gt;2274003274000</title>
<path fill="none" stroke="black" d="M3730.4,-210C3696.9,-229.37 3631.5,-262 3571,-262 3299,-262 3299,-262 3299,-262 3242.12,-262 3184.62,-298.55 3150.93,-324.54"/>
<polygon fill="black" stroke="black" points="3148.93,-321.66 3143.26,-330.61 3153.28,-327.15 3148.93,-321.66"/>
</g>
<!-- 2273939733584&#45;&gt;2274003287888 -->
<g id="edge3" class="edge">
<title>2273939733584&#45;&gt;2274003287888</title>
<path fill="none" stroke="black" d="M3769.99,-173.68C3785.9,-149.99 3811.08,-112.49 3828.28,-86.87"/>
<polygon fill="black" stroke="black" points="3831.16,-88.86 3833.83,-78.61 3825.35,-84.96 3831.16,-88.86"/>
</g>
<!-- 2273939726416&#45;&gt;2273939725008 -->
<g id="edge24" class="edge">
<title>2273939726416&#45;&gt;2273939725008</title>
<path fill="none" stroke="black" d="M2325.12,-275C2333.96,-275 2344.01,-275 2353.55,-275"/>
<polygon fill="black" stroke="black" points="2353.3,-278.5 2363.3,-275 2353.3,-271.5 2353.3,-278.5"/>
</g>
<!-- 2274003284752&#45;&gt;2274003287888 -->
<g id="edge20" class="edge">
<title>2274003284752&#45;&gt;2274003287888</title>
<path fill="none" stroke="black" d="M3781.12,-59C3789.96,-59 3800.01,-59 3809.55,-59"/>
<polygon fill="black" stroke="black" points="3809.3,-62.5 3819.3,-59 3809.3,-55.5 3809.3,-62.5"/>
</g>
<!-- 2274003287952&#45;&gt;2273939732560 -->
<g id="edge25" class="edge">
<title>2274003287952&#45;&gt;2273939732560</title>
<path fill="none" stroke="black" d="M3965.4,-57.5C3972.89,-57.07 3981.18,-56.6 3989.2,-56.15"/>
<polygon fill="black" stroke="black" points="3989.32,-59.65 3999.1,-55.58 3988.92,-52.66 3989.32,-59.65"/>
</g>
<!-- 2274003276048&#45;&gt;2274003279632 -->
<g id="edge21" class="edge">
<title>2274003276048&#45;&gt;2274003279632</title>
<path fill="none" stroke="black" d="M1222.88,-342.66C1234.31,-333.71 1248.73,-322.43 1261.59,-312.36"/>
<polygon fill="black" stroke="black" points="1263.71,-315.15 1269.43,-306.23 1259.39,-309.64 1263.71,-315.15"/>
</g>
<!-- 2274003286288&#45;&gt;2274003286928 -->
<g id="edge26" class="edge">
<title>2274003286288&#45;&gt;2274003286928</title>
<path fill="none" stroke="black" d="M144.4,-188C151.89,-188 160.18,-188 168.2,-188"/>
<polygon fill="black" stroke="black" points="168.1,-191.5 178.1,-188 168.1,-184.5 168.1,-191.5"/>
</g>
<!-- 2273939718480&#45;&gt;2273939720080 -->
<g id="edge27" class="edge">
<title>2273939718480&#45;&gt;2273939720080</title>
<path fill="none" stroke="black" d="M504.4,-260C511.89,-260 520.18,-260 528.2,-260"/>
<polygon fill="black" stroke="black" points="528.1,-263.5 538.1,-260 528.1,-256.5 528.1,-263.5"/>
</g>
<!-- 2274003282512&#45;&gt;2274003278352 -->
<g id="edge28" class="edge">
<title>2274003282512&#45;&gt;2274003278352</title>
<path fill="none" stroke="black" d="M3236.88,-344.77C3267.03,-338.67 3317.08,-328.55 3351.49,-321.59"/>
<polygon fill="black" stroke="black" points="3351.91,-325.07 3361.02,-319.66 3350.53,-318.21 3351.91,-325.07"/>
</g>
<!-- 2274003282512&#45;&gt;2274003277008 -->
<g id="edge29" class="edge">
<title>2274003282512&#45;&gt;2274003277008</title>
<path fill="none" stroke="black" d="M3236.45,-355.5C3244.27,-357.18 3253.04,-359.08 3261.49,-360.9"/>
<polygon fill="black" stroke="black" points="3260.69,-364.31 3271.21,-363 3262.17,-357.47 3260.69,-364.31"/>
</g>
<!-- 2274003279824&#45;&gt;2274003274000 -->
<g id="edge22" class="edge">
<title>2274003279824&#45;&gt;2274003274000</title>
<path fill="none" stroke="black" d="M684.16,-401.07C718.8,-406.1 781.83,-414 836,-414 836,-414 836,-414 2933,-414 2989.5,-414 3004.41,-406.65 3057,-386 3065.73,-382.57 3074.69,-378.04 3083,-373.36"/>
<polygon fill="black" stroke="black" points="3084.59,-376.48 3091.43,-368.4 3081.04,-370.45 3084.59,-376.48"/>
</g>
<!-- 2274003275728&#45;&gt;2274003280144 -->
<g id="edge23" class="edge">
<title>2274003275728&#45;&gt;2274003280144</title>
<path fill="none" stroke="black" d="M1405.64,-263.47C1417.42,-252.95 1432.61,-239.39 1445.73,-227.68"/>
<polygon fill="black" stroke="black" points="1447.73,-230.59 1452.86,-221.32 1443.07,-225.36 1447.73,-230.59"/>
</g>
<!-- 2274003273616&#45;&gt;2274003279440 -->
<g id="edge46" class="edge">
<title>2274003273616&#45;&gt;2274003279440</title>
<path fill="none" stroke="black" d="M1597.12,-275C1605.96,-275 1616.01,-275 1625.55,-275"/>
<polygon fill="black" stroke="black" points="1625.3,-278.5 1635.3,-275 1625.3,-271.5 1625.3,-278.5"/>
</g>
<!-- 2274003286160&#45;&gt;2274003280144 -->
<g id="edge43" class="edge">
<title>2274003286160&#45;&gt;2274003280144</title>
<path fill="none" stroke="black" d="M594.16,-164.93C628.8,-159.9 691.83,-152 746,-152 746,-152 746,-152 1296,-152 1346.31,-152 1401.74,-170.65 1437.27,-185.16"/>
<polygon fill="black" stroke="black" points="1435.66,-188.28 1446.24,-188.93 1438.37,-181.83 1435.66,-188.28"/>
</g>
<!-- 2273939720464&#45;&gt;2273939722832 -->
<g id="edge47" class="edge">
<title>2273939720464&#45;&gt;2273939722832</title>
<path fill="none" stroke="black" d="M684.4,-260C691.89,-260 700.18,-260 708.2,-260"/>
<polygon fill="black" stroke="black" points="708.1,-263.5 718.1,-260 708.1,-256.5 708.1,-263.5"/>
</g>
<!-- 2274003286224&#45;&gt;2274003287696 -->
<g id="edge41" class="edge">
<title>2274003286224&#45;&gt;2274003287696</title>
<path fill="none" stroke="black" d="M4091.19,-21.55C4056.69,-14.75 3993.53,-4 3939,-4 206,-4 206,-4 206,-4 120.7,-4 63.26,-107.41 39.84,-159.18"/>
<polygon fill="black" stroke="black" points="36.66,-157.73 35.85,-168.3 43.07,-160.54 36.66,-157.73"/>
</g>
<!-- 2274003283792&#45;&gt;2274003271888 -->
<g id="edge48" class="edge">
<title>2274003283792&#45;&gt;2274003271888</title>
<path fill="none" stroke="black" d="M3597.4,-321C3604.89,-321 3613.18,-321 3621.2,-321"/>
<polygon fill="black" stroke="black" points="3621.1,-324.5 3631.1,-321 3621.1,-317.5 3621.1,-324.5"/>
</g>
<!-- 2274003280720&#45;&gt;2274003276880 -->
<g id="edge45" class="edge">
<title>2274003280720&#45;&gt;2274003276880</title>
<path fill="none" stroke="black" d="M3417.4,-375.5C3424.89,-375.07 3433.18,-374.6 3441.2,-374.15"/>
<polygon fill="black" stroke="black" points="3441.32,-377.65 3451.1,-373.58 3440.92,-370.66 3441.32,-377.65"/>
</g>
<!-- 2273939722384&#45;&gt;2273939723280 -->
<g id="edge44" class="edge">
<title>2273939722384&#45;&gt;2273939723280</title>
<path fill="none" stroke="black" d="M2509.4,-275C2516.89,-275 2525.18,-275 2533.2,-275"/>
<polygon fill="black" stroke="black" points="2533.1,-278.5 2543.1,-275 2533.1,-271.5 2533.1,-278.5"/>
</g>
<!-- 2273939728720&#45;&gt;2273939718416 -->
<g id="edge42" class="edge">
<title>2273939728720&#45;&gt;2273939718416</title>
<path fill="none" stroke="black" d="M321.58,-227.79C330.09,-232.05 339.91,-236.95 349.27,-241.64"/>
<polygon fill="black" stroke="black" points="347.69,-244.76 358.2,-246.1 350.83,-238.5 347.69,-244.76"/>
</g>
<!-- 2273939722128&#45;&gt;2273939725136 -->
<g id="edge56" class="edge">
<title>2273939722128&#45;&gt;2273939725136</title>
<path fill="none" stroke="black" d="M2689.4,-275C2696.89,-275 2705.18,-275 2713.2,-275"/>
<polygon fill="black" stroke="black" points="2713.1,-278.5 2723.1,-275 2713.1,-271.5 2713.1,-278.5"/>
</g>
<!-- 2274003276752&#45;&gt;2274003278800 -->
<g id="edge58" class="edge">
<title>2274003276752&#45;&gt;2274003278800</title>
<path fill="none" stroke="black" d="M1781.4,-275C1788.89,-275 1797.18,-275 1805.2,-275"/>
<polygon fill="black" stroke="black" points="1805.1,-278.5 1815.1,-275 1805.1,-271.5 1805.1,-278.5"/>
</g>
<!-- 2273939718544&#45;&gt;2273939719760 -->
<g id="edge57" class="edge">
<title>2273939718544&#45;&gt;2273939719760</title>
<path fill="none" stroke="black" d="M864.4,-260C871.89,-260 880.18,-260 888.2,-260"/>
<polygon fill="black" stroke="black" points="888.1,-263.5 898.1,-260 888.1,-256.5 888.1,-263.5"/>
</g>
<!-- 2274003277072&#45;&gt;2274003281104 -->
<g id="edge66" class="edge">
<title>2274003277072&#45;&gt;2274003281104</title>
<path fill="none" stroke="black" d="M1961.4,-275C1968.89,-275 1977.18,-275 1985.2,-275"/>
<polygon fill="black" stroke="black" points="1985.1,-278.5 1995.1,-275 1985.1,-271.5 1985.1,-278.5"/>
</g>
<!-- 2273939729040&#45;&gt;2274003278288 -->
<g id="edge63" class="edge">
<title>2273939729040&#45;&gt;2274003278288</title>
<path fill="none" stroke="black" d="M1044.4,-359C1051.89,-359 1060.18,-359 1068.2,-359"/>
<polygon fill="black" stroke="black" points="1068.1,-362.5 1078.1,-359 1068.1,-355.5 1068.1,-362.5"/>
</g>
<!-- 2273939723600&#45;&gt;2273939725520 -->
<g id="edge65" class="edge">
<title>2273939723600&#45;&gt;2273939725520</title>
<path fill="none" stroke="black" d="M2869.4,-275C2876.89,-275 2885.18,-275 2893.2,-275"/>
<polygon fill="black" stroke="black" points="2893.1,-278.5 2903.1,-275 2893.1,-271.5 2893.1,-278.5"/>
</g>
<!-- 2273939718288&#45;&gt;2273939719504 -->
<g id="edge64" class="edge">
<title>2273939718288&#45;&gt;2273939719504</title>
<path fill="none" stroke="black" d="M1044.4,-215C1051.89,-215 1060.18,-215 1068.2,-215"/>
<polygon fill="black" stroke="black" points="1068.1,-218.5 1078.1,-215 1068.1,-211.5 1068.1,-218.5"/>
</g>
<!-- 2273939732368&#45;&gt;2273939723408 -->
<g id="edge74" class="edge">
<title>2273939732368&#45;&gt;2273939723408</title>
<path fill="none" stroke="black" d="M2137.66,-312.87C2146.6,-307.69 2157.09,-301.61 2167.01,-295.86"/>
<polygon fill="black" stroke="black" points="2168.46,-299.06 2175.36,-291.02 2164.95,-293 2168.46,-299.06"/>
</g>
<!-- 2274003277392&#45;&gt;2274003281552 -->
<g id="edge75" class="edge">
<title>2274003277392&#45;&gt;2274003281552</title>
<path fill="none" stroke="black" d="M2141.4,-182C2148.89,-182 2157.18,-182 2165.2,-182"/>
<polygon fill="black" stroke="black" points="2165.1,-185.5 2175.1,-182 2165.1,-178.5 2165.1,-185.5"/>
</g>
<!-- 2273939726864&#45;&gt;2274003274000 -->
<g id="edge73" class="edge">
<title>2273939726864&#45;&gt;2274003274000</title>
<path fill="none" stroke="black" d="M3053.12,-350C3061.96,-350 3072.01,-350 3081.55,-350"/>
<polygon fill="black" stroke="black" points="3081.3,-353.5 3091.3,-350 3081.3,-346.5 3081.3,-353.5"/>
</g>
</g>
</svg>
